/* XPM */
static char *jr-up-arrow.png[] = {
/* columns rows colors chars-per-pixel */
"7 7 2 1",
"  c opaque",
". c None",
/* pixels */
".......",
"... ...",
".. . ..",
". ... .",
" ..... ",
".......",
"......."
};
